<!-- <?xml version="1.0" encoding="utf-8"?>
	Generator: Adobe Illustrator 19.1.0, SVG Export Plug-In . SVG Version: 6.00 Build 0) 
<svg version="1.1" id="Layer_1" xmlns="http://www.w3.org/2000/svg" xmlns:xlink="http://www.w3.org/1999/xlink" x="0px" y="0px"
	 viewBox="0 0 32 32" style="enable-background:new 0 0 32 32;" xml:space="preserve">
<path fill="blue" d="M17.7,25.7c0-0.3,0-0.5-0.1-0.8c-0.1-0.2-0.1-0.5-0.2-0.7c-0.1-0.2-0.2-0.4-0.3-0.7c-0.2-0.2-0.3-0.4-0.4-0.6
	c-0.1-0.2-0.3-0.3-0.5-0.6c-0.2-0.2-0.4-0.4-0.5-0.5c-0.1-0.1-0.3-0.3-0.6-0.5c-0.3-0.2-0.5-0.4-0.6-0.4s-0.3-0.2-0.6-0.4
	c-0.3-0.2-0.5-0.4-0.6-0.4c-0.2,0-0.5,0-1,0c-0.7,0-1.4,0-2,0.1c-0.7,0.1-1.4,0.2-2.1,0.5c-0.7,0.2-1.3,0.5-1.9,0.9s-1,0.8-1.3,1.4
	c-0.3,0.6-0.5,1.3-0.5,2.1c0,0.9,0.2,1.7,0.7,2.3c0.5,0.7,1.1,1.2,1.8,1.6s1.5,0.7,2.3,0.9s1.6,0.3,2.4,0.3c0.8,0,1.5-0.1,2.2-0.2
	c0.7-0.2,1.3-0.4,1.9-0.8c0.6-0.3,1.1-0.8,1.4-1.4C17.5,27.2,17.7,26.5,17.7,25.7z M15.4,9.1c0-0.8-0.1-1.6-0.3-2.5
	c-0.2-0.9-0.5-1.7-0.9-2.5c-0.4-0.8-0.9-1.5-1.6-2c-0.7-0.5-1.5-0.8-2.3-0.8c-1.2,0-2.1,0.4-2.8,1.3c-0.7,0.9-1,1.9-1,3.2
	c0,0.6,0.1,1.2,0.2,1.9c0.1,0.7,0.4,1.3,0.7,2c0.3,0.7,0.7,1.3,1.1,1.8c0.4,0.5,0.9,1,1.5,1.3c0.6,0.3,1.2,0.5,1.9,0.5
	c1.2,0,2.1-0.4,2.7-1.2C15.1,11.4,15.4,10.4,15.4,9.1z M12.9,0h8.4l-2.6,1.5h-2.6c0.9,0.6,1.6,1.4,2.1,2.4s0.8,2.1,0.8,3.2
	c0,0.9-0.1,1.8-0.4,2.5c-0.3,0.7-0.7,1.3-1.1,1.8c-0.4,0.4-0.8,0.9-1.3,1.2c-0.4,0.4-0.8,0.8-1.1,1.2c-0.3,0.4-0.4,0.8-0.4,1.3
	c0,0.3,0.1,0.7,0.3,1c0.2,0.3,0.5,0.6,0.8,0.9c0.3,0.3,0.7,0.6,1.1,0.9c0.4,0.3,0.8,0.7,1.2,1.1c0.4,0.4,0.8,0.8,1.1,1.3
	c0.3,0.5,0.6,1,0.8,1.6c0.2,0.6,0.3,1.3,0.3,2c0,2.1-0.9,3.9-2.7,5.4c-1.9,1.7-4.6,2.5-8.1,2.5c-0.8,0-1.5-0.1-2.3-0.2
	c-0.8-0.1-1.6-0.3-2.3-0.6c-0.8-0.3-1.5-0.7-2.1-1.1c-0.6-0.4-1.1-1-1.5-1.7C1,27.6,0.8,26.9,0.8,26c0-0.8,0.2-1.6,0.7-2.6
	c0.4-0.8,1-1.5,1.8-2.1c0.8-0.6,1.8-1.1,2.8-1.4c1-0.3,2-0.5,3-0.7c0.9-0.1,1.9-0.2,2.9-0.3c-0.8-1.1-1.2-2-1.2-2.9
	c0-0.2,0-0.3,0-0.5c0-0.1,0.1-0.3,0.1-0.4c0-0.1,0.1-0.2,0.2-0.4c0.1-0.2,0.1-0.3,0.1-0.4c-0.5,0.1-1,0.1-1.3,0.1
	c-1.9,0-3.5-0.6-4.9-1.9c-1.4-1.3-2-2.8-2-4.7c0-1.8,0.6-3.4,1.8-4.8C6,1.7,7.5,0.8,9.3,0.4C10.5,0.1,11.7,0,12.9,0z M32.8,4.9v2.5
	h-4.9v4.9h-2.5V7.4h-4.9V4.9h4.9V0h2.5v4.9H32.8z"/>
</svg> -->

<svg class="icon" xmlns="http://www.w3.org/2000/svg" viewBox="0 0 32 32">
  <path d="M17.7 25.7c0-.3 0-.5-.1-.8-.1-.2-.1-.5-.2-.7-.1-.2-.2-.4-.3-.7-.2-.2-.3-.4-.4-.6-.1-.2-.3-.3-.5-.6l-.5-.5c-.1-.1-.3-.3-.6-.5s-.5-.4-.6-.4-.3-.2-.6-.4-.5-.4-.6-.4h-1c-.7 0-1.4 0-2 .1-.7.1-1.4.2-2.1.5-.7.2-1.3.5-1.9.9s-1 .8-1.3 1.4c-.3.6-.5 1.3-.5 2.1 0 .9.2 1.7.7 2.3.5.7 1.1 1.2 1.8 1.6s1.5.7 2.3.9 1.6.3 2.4.3c.8 0 1.5-.1 2.2-.2.7-.2 1.3-.4 1.9-.8.6-.3 1.1-.8 1.4-1.4.3-.6.5-1.3.5-2.1zM15.4 9.1c0-.8-.1-1.6-.3-2.5-.2-.9-.5-1.7-.9-2.5s-.9-1.5-1.6-2c-.7-.5-1.5-.8-2.3-.8-1.2 0-2.1.4-2.8 1.3-.7.9-1 1.9-1 3.2 0 .6.1 1.2.2 1.9s.4 1.3.7 2c.3.7.7 1.3 1.1 1.8.4.5.9 1 1.5 1.3.6.3 1.2.5 1.9.5 1.2 0 2.1-.4 2.7-1.2.5-.7.8-1.7.8-3zM12.9 0h8.4l-2.6 1.5h-2.6c.9.6 1.6 1.4 2.1 2.4S19 6 19 7.1c0 .9-.1 1.8-.4 2.5-.3.7-.7 1.3-1.1 1.8-.4.4-.8.9-1.3 1.2-.4.4-.8.8-1.1 1.2-.3.4-.4.8-.4 1.3 0 .3.1.7.3 1 .2.3.5.6.8.9.3.3.7.6 1.1.9.4.3.8.7 1.2 1.1.4.4.8.8 1.1 1.3.3.5.6 1 .8 1.6.2.6.3 1.3.3 2 0 2.1-.9 3.9-2.7 5.4-1.9 1.7-4.6 2.5-8.1 2.5-.8 0-1.5-.1-2.3-.2-.8-.1-1.6-.3-2.3-.6-.8-.3-1.5-.7-2.1-1.1-.6-.4-1.1-1-1.5-1.7C1 27.6.8 26.9.8 26c0-.8.2-1.6.7-2.6.4-.8 1-1.5 1.8-2.1.8-.6 1.8-1.1 2.8-1.4 1-.3 2-.5 3-.7.9-.1 1.9-.2 2.9-.3-.8-1.1-1.2-2-1.2-2.9v-.5c0-.1.1-.3.1-.4 0-.1.1-.2.2-.4s.1-.3.1-.4c-.5.1-1 .1-1.3.1-1.9 0-3.5-.6-4.9-1.9-1.4-1.3-2-2.8-2-4.7C3 6 3.6 4.4 4.8 3 6 1.7 7.5.8 9.3.4c1.2-.3 2.4-.4 3.6-.4zm19.9 4.9v2.5h-4.9v4.9h-2.5V7.4h-4.9V4.9h4.9V0h2.5v4.9h4.9z"/>
</svg>